# Blender v2.90.1 OBJ File: 'drzewo.blend'
# www.blender.org
mtllib drzewo.mtl
o Sphere
v -0.014772 4.606174 -1.062972
v 0.077554 4.211145 -1.094857
v 0.067130 3.848241 -0.988987
v 0.184816 4.881598 -0.913871
v -0.002415 3.550022 -0.772217
v -0.109166 3.323695 -0.275517
v 0.065776 5.209500 -0.556684
v 0.413486 4.283885 -1.016153
v 0.395145 3.822124 -0.874898
v 0.516247 4.901495 -0.733915
v 0.738614 4.628531 -0.675948
v 0.709581 4.303287 -0.810073
v 0.587788 3.745815 -0.687534
v -0.015853 5.311838 -0.242694
v 0.384713 5.204943 -0.333642
v 0.781573 4.873677 -0.363289
v 0.946849 4.310115 -0.411392
v 0.757593 3.727145 -0.400584
v 0.361974 3.419127 -0.404606
v 0.607649 5.092746 -0.096831
v 0.940674 4.601993 -0.096831
v 0.972098 4.112402 -0.096831
v 0.144011 3.344919 -0.338805
v 0.781573 4.873677 0.169628
v 0.946849 4.310115 0.217731
v 0.757593 3.727145 0.206923
v 0.738614 4.628531 0.482287
v 0.587788 3.745815 0.493873
v 0.384713 5.204943 0.139981
v 0.516247 4.901495 0.540254
v 0.709581 4.303287 0.616411
v -0.020741 3.310115 -0.096830
v 0.413486 4.283885 0.822492
v 0.395145 3.822124 0.681237
v 0.361974 3.419127 0.210945
v 0.144011 3.344919 0.145144
v 0.111170 4.948927 0.676298
v 0.077554 4.211145 0.901196
v 0.067130 3.848241 0.795326
v -0.014772 4.606174 0.869311
v 0.065776 5.209500 0.363023
v -0.344498 4.309118 0.872108
v -0.366155 3.831108 0.728243
v -0.002415 3.550022 0.578556
v -0.246419 5.099040 0.499693
v -0.417557 4.735010 0.736645
v 0.147730 5.309994 -0.096831
v -0.568516 4.203808 0.748746
v -0.222164 3.408349 0.313357
v -0.668468 4.809089 0.498411
v -0.807705 4.409087 0.527397
v -0.752141 3.906817 0.477762
v -0.525477 3.596213 0.401482
v -0.109166 3.323695 0.081856
v -0.015853 5.311838 0.049033
v -0.579169 5.097364 0.204937
v -0.464970 3.422936 0.078882
v -0.334994 5.256386 0.058685
v -0.854195 4.854546 0.100037
v -1.005011 4.497773 0.094018
v -0.913624 3.921659 0.195873
v -0.657397 3.533169 -0.096831
v -0.854195 4.854546 -0.293698
v -0.982747 4.417713 -0.379920
v -0.913624 3.921659 -0.389534
v -0.851116 3.729672 -0.234390
v -0.464970 3.422936 -0.272543
v -0.338836 5.238614 -0.313229
v -0.579169 5.097364 -0.398598
v -0.807705 4.409087 -0.721058
v -0.752141 3.906817 -0.671424
v -0.366155 3.831108 -0.921904
v -0.480116 4.632963 -0.933896
v -0.568516 4.203808 -0.942407
v -0.222164 3.408349 -0.507018
v -0.246419 5.099040 -0.693354
v -0.344498 4.309118 -1.065769
vt 0.726364 0.846133
vt 0.714520 0.684814
vt 0.831036 0.801094
vt 0.746909 0.229523
vt 0.626778 0.107866
vt 0.823982 0.147657
vt 0.732746 0.348806
vt 0.681446 0.490908
vt 0.673455 0.339760
vt 0.749847 0.593374
vt 0.734375 0.466003
vt 0.639093 0.697808
vt 0.624138 0.498238
vt 0.671875 0.000000
vt 0.815033 0.067724
vt 0.747693 0.937500
vt 0.585719 0.845526
vt 0.623777 0.313257
vt 0.546263 0.687455
vt 0.604155 0.600527
vt 0.546829 0.498222
vt 0.558167 0.308889
vt 0.500000 0.784675
vt 0.602632 0.171204
vt 0.450959 0.315604
vt 0.492969 0.946781
vt 0.500000 0.437232
vt 0.500000 0.593822
vt 0.453171 0.498222
vt 0.484375 0.000000
vt 0.365193 0.097289
vt 0.252307 0.937500
vt 0.414281 0.845526
vt 0.397368 0.171204
vt 0.462269 0.692123
vt 0.376222 0.313257
vt 0.360613 0.699340
vt 0.375862 0.498238
vt 0.326545 0.339760
vt 0.318554 0.490908
vt 0.328125 0.000000
vt 0.176957 0.062500
vt 0.273636 0.846133
vt 0.280278 0.716185
vt 0.253091 0.229524
vt 0.267254 0.348806
vt 0.250153 0.593374
vt 0.176018 0.147657
vt 0.188812 0.776513
vt 0.179178 0.635471
vt 0.206612 0.500947
vt 0.265625 0.466003
vt 0.185334 0.343909
vt 0.123986 0.250000
vt 0.117603 0.663564
vt 0.067840 0.883100
vt 0.158276 0.469594
vt 0.106465 0.367963
vt 0.109306 0.530713
vt 0.061855 0.157847
vt 0.078764 0.784368
vt 0.041169 0.368305
vt 0.040153 0.676160
vt 0.031534 0.554377
vt 0.015625 0.000000
vt 0.000000 0.096751
vt 0.000000 0.218512
vt 0.015625 1.000000
vt 1.000000 0.593822
vt 0.968485 0.672220
vt 0.950879 0.532377
vt 1.000000 0.468727
vt 1.000000 0.903249
vt 0.984375 1.000000
vt 0.952201 0.375751
vt 0.904889 0.875000
vt 0.978430 0.300545
vt 0.921236 0.784368
vt 1.000000 0.784675
vt 0.890694 0.530713
vt 0.891426 0.369375
vt 0.938145 0.157847
vt 0.841724 0.469594
vt 0.834575 0.607229
vt 0.814666 0.343909
vt 0.793388 0.500947
vt 0.395845 0.600527
vt 0.000000 0.343629
vt 0.000000 0.687500
vt 1.000000 0.218512
vn 0.0311 0.7414 -0.6703
vn 0.0469 -0.8967 -0.4402
vn 0.2937 -0.2903 -0.9108
vn 0.3051 0.2729 -0.9124
vn 0.2005 0.1253 -0.9716
vn 0.5370 0.2751 -0.7975
vn 0.0573 -0.9929 -0.1038
vn 0.1940 0.9465 -0.2580
vn 0.2791 0.7519 -0.5972
vn 0.3253 -0.7106 -0.6239
vn 0.6217 -0.2516 -0.7417
vn 0.5814 0.7289 -0.3615
vn 0.7262 0.4890 -0.4832
vn 0.8902 0.2910 -0.3505
vn 0.8506 0.1338 -0.5085
vn 0.8157 -0.2884 -0.5015
vn 0.6153 0.7568 -0.2206
vn 0.3721 -0.9031 0.2142
vn 0.2051 0.9542 -0.2180
vn 0.9161 -0.3023 -0.2635
vn 0.8737 -0.4865 0.0000
vn 0.9972 0.0640 0.0398
vn 0.2067 -0.9784 0.0000
vn 0.2051 0.9542 0.2180
vn 0.4270 0.9039 -0.0263
vn 0.6078 -0.7825 -0.1354
vn 0.9223 0.2921 0.2529
vn 0.3223 -0.9466 0.0000
vn 0.8194 -0.2753 0.5028
vn 0.5814 0.7289 0.3615
vn 0.6037 -0.2947 0.7407
vn 0.5370 0.2751 0.7975
vn 0.0573 -0.9929 0.1038
vn 0.1940 0.9465 0.2580
vn 0.2861 0.7567 0.5879
vn 0.3253 -0.7106 0.6239
vn 0.2937 -0.2903 0.9108
vn 0.3513 0.3402 0.8723
vn 0.0469 -0.8967 0.4402
vn 0.0075 0.7693 0.6388
vn 0.3345 0.3661 0.8684
vn -0.1467 0.5871 0.7961
vn -0.0529 0.0681 0.9963
vn -0.1366 -0.2738 0.9520
vn -0.2816 -0.7088 0.6468
vn -0.4319 0.6258 0.6495
vn -0.1509 0.9277 0.3416
vn -0.5577 -0.3443 0.7553
vn -0.6201 0.2693 0.7368
vn -0.4086 -0.8338 0.3712
vn -0.7368 -0.1467 0.6601
vn -0.3372 0.8632 0.3757
vn -0.8620 -0.1434 0.4862
vn -0.6885 0.6110 0.3907
vn -0.8269 0.3420 0.4464
vn -0.1518 -0.9884 0.0000
vn -0.6109 0.7705 -0.1821
vn -0.3929 -0.9089 -0.1399
vn -0.2687 -0.9632 0.0000
vn -0.1736 0.9629 -0.2068
vn -0.9498 0.2982 -0.0950
vn -0.9869 -0.1600 -0.0193
vn -0.0780 0.9919 0.1000
vn -0.9904 -0.1380 0.0000
vn -0.2116 0.9763 -0.0445
vn -0.9509 -0.3096 0.0000
vn -0.6088 0.7917 0.0498
vn -0.6618 0.7496 0.0000
vn -0.7102 0.5930 -0.3794
vn -0.8620 -0.1434 -0.4862
vn -0.7340 -0.5551 -0.3912
vn -0.6104 0.3946 -0.6868
vn -0.3561 0.8459 -0.3972
vn -0.5132 -0.7064 -0.4875
vn -0.7368 -0.1467 -0.6601
vn -0.6050 0.1402 -0.7838
vn -0.5577 -0.3443 -0.7553
vn -0.4344 -0.7913 -0.4303
vn -0.1370 0.9308 -0.3390
vn -0.1990 0.5264 -0.8266
vn -0.0529 0.0681 -0.9963
vn -0.1361 -0.2799 -0.9503
vn -0.0063 -0.9402 -0.3407
vn 0.2756 -0.2765 -0.9207
vn 0.2177 -0.6066 -0.7647
vn 0.1562 -0.8713 -0.4651
vn 0.4388 0.3121 -0.8427
vn 0.3293 -0.7379 -0.5892
vn 0.5591 -0.2927 -0.7757
vn 0.3532 0.7978 -0.4887
vn 0.5463 0.2772 -0.7904
vn 0.5696 -0.7265 -0.3843
vn 0.8276 -0.2777 -0.4878
vn 0.7832 0.6218 0.0000
vn 0.6143 -0.7890 0.0000
vn 0.8629 0.5053 0.0000
vn 0.9223 0.2921 -0.2529
vn 0.9972 0.0640 -0.0398
vn 0.4270 0.9039 0.0263
vn 0.9161 -0.3023 0.2635
vn 0.6153 0.7568 0.2206
vn 0.8253 -0.2872 0.4862
vn 0.7262 0.4890 0.4832
vn 0.8902 0.2910 0.3505
vn 0.8506 0.1338 0.5085
vn 0.5696 -0.7265 0.3843
vn 0.5628 -0.2622 0.7839
vn 0.3532 0.7978 0.4887
vn 0.5463 0.2772 0.7904
vn 0.3293 -0.7379 0.5892
vn 0.2756 -0.2765 0.9207
vn 0.2177 -0.6066 0.7647
vn 0.1562 -0.8713 0.4651
vn 0.2005 0.1253 0.9716
vn -0.0063 -0.9402 0.3407
vn -0.1038 -0.5688 0.8159
vn -0.1132 0.5188 0.8474
vn -0.1306 -0.2803 0.9510
vn -0.2261 0.2598 0.9388
vn -0.2748 -0.7347 0.6202
vn -0.5358 0.1711 0.8269
vn -0.3733 -0.2518 0.8929
vn -0.1667 0.9176 0.3609
vn -0.5788 0.1826 0.7948
vn -0.5289 -0.5456 0.6501
vn -0.4789 0.6947 0.5367
vn -0.2641 -0.9403 0.2149
vn -0.9132 -0.0740 0.4006
vn -0.7042 -0.6051 0.3715
vn -0.6946 -0.6800 0.2350
vn -0.8426 0.3244 0.4298
vn -0.7587 -0.6287 0.1703
vn -0.6696 -0.6750 0.3098
vn -0.9211 0.3894 0.0000
vn -0.6211 -0.7563 -0.2057
vn -0.2541 -0.9199 0.2988
vn -0.4967 0.8671 -0.0363
vn -0.6072 0.3221 -0.7264
vn -0.8850 -0.1146 -0.4512
vn -0.5908 -0.6922 -0.4144
vn -0.2641 -0.9403 -0.2149
vn -0.6843 0.5747 -0.4487
vn -0.1594 0.9135 -0.3742
vn -0.3920 -0.6360 -0.6646
vn -0.5229 0.1244 -0.8433
vn -0.3733 -0.2518 -0.8929
vn -0.2419 0.2773 -0.9298
vn -0.1038 -0.5688 -0.8159
vn -0.1437 0.5496 -0.8230
vn -0.1293 -0.2743 -0.9529
usemtl Material.001
s off
f 7/1/1 4/2/1 76/3/1
f 5/4/2 23/5/2 75/6/2
f 3/7/3 8/8/3 9/9/3
f 4/2/4 8/8/4 1/10/4
f 1/10/5 8/8/5 2/11/5
f 8/8/6 10/12/6 12/13/6
f 32/14/7 6/15/7 23/5/7
f 14/16/8 15/17/8 7/1/8
f 7/1/9 10/12/9 4/2/9
f 5/4/10 9/9/10 13/18/10
f 8/8/11 13/18/11 9/9/11
f 15/17/12 16/19/12 10/12/12
f 10/12/13 16/19/13 11/20/13
f 11/20/14 16/19/14 17/21/14
f 11/20/15 17/21/15 12/13/15
f 12/13/16 18/22/16 13/18/16
f 15/17/17 20/23/17 16/19/17
f 19/24/18 26/25/18 23/5/18
f 14/16/19 47/26/19 15/17/19
f 17/21/20 22/27/20 18/22/20
f 18/22/21 22/27/21 26/25/21
f 21/28/22 25/29/22 22/27/22
f 32/30/23 23/5/23 36/31/23
f 47/26/24 55/32/24 29/33/24
f 47/26/25 29/33/25 20/23/25
f 26/25/26 35/34/26 23/5/26
f 21/28/27 24/35/27 25/29/27
f 23/5/28 35/34/28 36/31/28
f 25/29/29 28/36/29 26/25/29
f 29/33/30 30/37/30 24/35/30
f 31/38/31 34/39/31 28/36/31
f 31/38/32 30/37/32 33/40/32
f 32/41/33 36/31/33 54/42/33
f 55/32/34 41/43/34 29/33/34
f 41/43/35 37/44/35 30/37/35
f 34/39/36 44/45/36 28/36/36
f 33/40/37 39/46/37 34/39/37
f 33/40/38 30/37/38 40/47/38
f 44/45/39 49/48/39 36/31/39
f 37/44/40 41/43/40 45/49/40
f 37/44/41 40/47/41 30/37/41
f 37/44/42 45/49/42 46/50/42
f 40/47/43 42/51/43 38/52/43
f 38/52/44 43/53/44 39/46/44
f 43/53/45 53/54/45 44/45/45
f 46/50/46 45/49/46 50/55/46
f 55/32/47 58/56/47 41/43/47
f 48/57/48 52/58/48 43/53/48
f 46/50/49 50/55/49 51/59/49
f 53/54/50 57/60/50 49/48/50
f 51/59/51 52/58/51 48/57/51
f 58/56/52 56/61/52 45/49/52
f 51/59/53 61/62/53 52/58/53
f 50/55/54 56/61/54 59/63/54
f 51/59/55 59/63/55 60/64/55
f 32/65/56 54/42/56 6/66/56
f 58/56/57 59/63/57 56/61/57
f 57/60/58 62/67/58 6/66/58
f 57/60/59 6/66/59 54/42/59
f 55/32/60 47/68/60 58/56/60
f 60/69/61 63/70/61 64/71/61
f 60/69/62 64/71/62 61/72/62
f 58/73/63 47/74/63 14/16/63
f 61/72/64 64/71/64 65/75/64
f 58/73/65 14/16/65 68/76/65
f 61/72/66 65/75/66 66/77/66
f 58/73/67 69/78/67 59/79/67
f 59/79/68 69/78/68 63/70/68
f 64/71/69 76/3/69 70/80/69
f 65/75/70 70/80/70 71/81/70
f 65/75/71 71/81/71 66/77/71
f 63/70/72 69/78/72 76/3/72
f 68/76/73 76/3/73 69/78/73
f 71/81/74 75/6/74 67/82/74
f 71/81/75 70/80/75 74/83/75
f 70/80/76 73/84/76 74/83/76
f 74/83/77 72/85/77 71/81/77
f 72/85/78 5/4/78 71/81/78
f 68/76/79 14/16/79 7/1/79
f 76/3/80 1/10/80 73/84/80
f 77/86/81 1/10/81 2/11/81
f 77/86/82 3/7/82 72/85/82
f 75/6/83 23/5/83 6/15/83
f 3/7/84 2/11/84 8/8/84
f 5/4/85 3/7/85 9/9/85
f 5/4/86 19/24/86 23/5/86
f 8/8/87 4/2/87 10/12/87
f 5/4/88 13/18/88 19/24/88
f 8/8/89 12/13/89 13/18/89
f 7/1/90 15/17/90 10/12/90
f 10/12/91 11/20/91 12/13/91
f 19/24/92 13/18/92 18/22/92
f 12/13/93 17/21/93 18/22/93
f 16/19/94 20/23/94 24/35/94
f 19/24/95 18/22/95 26/25/95
f 16/19/96 24/35/96 21/28/96
f 17/21/97 16/19/97 21/28/97
f 17/21/98 21/28/98 22/27/98
f 15/17/99 47/26/99 20/23/99
f 22/27/100 25/29/100 26/25/100
f 20/23/101 29/33/101 24/35/101
f 25/29/102 31/38/102 28/36/102
f 24/35/103 30/37/103 27/87/103
f 25/29/104 24/35/104 27/87/104
f 25/29/105 27/87/105 31/38/105
f 35/34/106 26/25/106 28/36/106
f 31/38/107 33/40/107 34/39/107
f 30/37/108 29/33/108 41/43/108
f 31/38/109 27/87/109 30/37/109
f 35/34/110 28/36/110 44/45/110
f 33/40/111 38/52/111 39/46/111
f 34/39/112 39/46/112 44/45/112
f 35/34/113 44/45/113 36/31/113
f 33/40/114 40/47/114 38/52/114
f 54/42/115 36/31/115 49/48/115
f 39/46/116 43/53/116 44/45/116
f 37/44/117 46/50/117 40/47/117
f 38/52/118 42/51/118 43/53/118
f 42/51/119 40/47/119 46/50/119
f 49/48/120 44/45/120 53/54/120
f 42/51/121 46/50/121 48/57/121
f 42/51/122 48/57/122 43/53/122
f 41/43/123 58/56/123 45/49/123
f 48/57/124 46/50/124 51/59/124
f 43/53/125 52/58/125 53/54/125
f 50/55/126 45/49/126 56/61/126
f 49/48/127 57/60/127 54/42/127
f 51/59/128 60/64/128 61/62/128
f 53/54/129 52/58/129 61/62/129
f 53/54/130 61/62/130 57/60/130
f 51/59/131 50/55/131 59/63/131
f 61/62/132 66/88/132 62/67/132
f 57/60/133 61/62/133 62/67/133
f 59/63/134 63/89/134 60/64/134
f 62/90/135 66/77/135 67/82/135
f 6/15/136 62/90/136 67/82/136
f 58/73/137 68/76/137 69/78/137
f 64/71/138 63/70/138 76/3/138
f 65/75/139 64/71/139 70/80/139
f 66/77/140 71/81/140 67/82/140
f 67/82/141 75/6/141 6/15/141
f 70/80/142 76/3/142 73/84/142
f 76/3/143 68/76/143 7/1/143
f 71/81/144 5/4/144 75/6/144
f 73/84/145 77/86/145 74/83/145
f 74/83/146 77/86/146 72/85/146
f 77/86/147 73/84/147 1/10/147
f 72/85/148 3/7/148 5/4/148
f 1/10/149 76/3/149 4/2/149
f 77/86/150 2/11/150 3/7/150
o Cylinder
v 0.105014 3.769337 -0.337245
v 0.252436 3.769337 -0.078838
v 0.250637 -0.093830 -0.087525
v -0.051096 3.631044 0.016331
v -0.047164 -0.093830 0.018058
v -0.030229 -0.093830 -0.352712
v -0.092180 3.769337 -0.227890
v 0.249976 1.717913 -0.404848
v 0.108472 1.731141 -0.173044
v 0.007755 1.735367 -0.556691
v 0.251831 2.538741 -0.241023
v 0.105636 2.693040 0.004348
v -0.105372 1.770719 -0.315932
v 0.010565 2.724409 -0.376607
vt 0.953646 1.000000
vt 0.790622 0.859424
vt 0.976377 0.859424
vt 0.696943 1.000000
vt 0.532942 0.859424
vt 0.325602 0.735318
vt 0.177242 1.000000
vt 0.066100 0.859424
vt 0.294544 0.465791
vt 0.046119 0.350180
vt 0.128239 0.076377
vt 0.442602 0.183118
vt 0.107916 0.500000
vt 0.393554 0.500000
vt 0.704003 0.500000
vt 0.535432 0.736446
vt 0.951287 0.500000
vt 0.780539 0.736446
vt 0.067680 0.736446
vt 0.397310 0.983597
vt 0.031543 1.000000
vt 0.669306 0.403338
vt 0.947957 0.191759
vt 0.618023 0.084675
vt 0.976274 0.736446
vn 0.4836 -0.0107 -0.8752
vn 0.8363 -0.0720 0.5436
vn -0.6831 0.0366 -0.7294
vn -0.1337 0.9415 0.3092
vn -0.9982 -0.0393 -0.0456
vn 0.3333 0.0700 0.9402
vn 0.6810 -0.1261 -0.7213
vn -0.8974 0.0815 -0.4336
vn 0.8668 0.0647 -0.4945
vn 0.2843 0.0353 0.9581
vn -0.9862 -0.0008 0.1655
vn -0.4836 0.0766 -0.8720
vn -0.6155 -0.1292 0.7775
vn 0.0000 -1.0000 0.0000
vn -0.9063 -0.0282 -0.4217
vn -0.5335 0.1330 0.8353
vn 0.8523 0.0905 0.5151
vn 0.5227 -0.1052 -0.8460
vn 0.8355 -0.1029 0.5398
vn 0.5520 0.1543 -0.8195
usemtl Material.002
s off
f 78/91/151 88/92/151 91/93/151
f 79/94/152 89/95/152 88/92/152
f 90/96/153 84/97/153 91/98/153
f 78/99/154 84/100/154 81/101/154 79/102/154
f 90/96/155 83/103/155 82/104/155
f 80/105/156 86/106/156 82/104/156
f 83/107/157 85/108/157 80/105/157
f 90/96/158 91/98/158 87/109/158
f 78/91/159 79/94/159 88/92/159
f 79/94/160 81/110/160 89/95/160
f 90/96/161 81/110/161 84/97/161
f 91/98/162 84/97/162 78/111/162
f 81/110/163 90/96/163 86/106/163 89/95/163
f 83/112/164 80/113/164 82/114/164
f 90/96/165 87/109/165 83/103/165
f 86/106/166 90/96/166 82/104/166
f 80/105/167 85/108/167 86/106/167
f 83/107/168 87/115/168 85/108/168
f 86/106/169 85/108/169 88/92/169 89/95/169
f 85/108/170 87/115/170 91/93/170 88/92/170
